<svg xmlns="http://www.w3.org/2000/svg" width="358.42" height="35" viewBox="0 0 358.42 35"><rect class="svg__rect" x="0" y="0" width="115.31" height="35" fill="#861918"/><rect class="svg__rect" x="113.31" y="0" width="245.11" height="35" fill="#C13B3A"/><path class="svg__text" d="M15.69 22L14.22 22L14.22 13.47L16.14 13.47L18.60 20.01L21.06 13.47L22.97 13.47L22.97 22L21.49 22L21.49 19.19L21.64 15.43L19.12 22L18.06 22L15.55 15.43L15.69 19.19L15.69 22ZM28.49 22L26.95 22L30.17 13.47L31.50 13.47L34.73 22L33.18 22L32.49 20.01L29.18 20.01L28.49 22ZM30.83 15.28L29.60 18.82L32.07 18.82L30.83 15.28ZM41.14 22L38.69 22L38.69 13.47L41.21 13.47Q42.34 13.47 43.21 13.97Q44.09 14.48 44.57 15.40Q45.05 16.33 45.05 17.52L45.05 17.52L45.05 17.95Q45.05 19.16 44.57 20.08Q44.08 21.00 43.19 21.50Q42.30 22 41.14 22L41.14 22ZM40.17 14.66L40.17 20.82L41.14 20.82Q42.30 20.82 42.93 20.09Q43.55 19.36 43.56 17.99L43.56 17.99L43.56 17.52Q43.56 16.13 42.96 15.40Q42.35 14.66 41.21 14.66L41.21 14.66L40.17 14.66ZM55.09 22L49.51 22L49.51 13.47L55.05 13.47L55.05 14.66L51.00 14.66L51.00 17.02L54.50 17.02L54.50 18.19L51.00 18.19L51.00 20.82L55.09 20.82L55.09 22ZM66.65 22L64.68 13.47L66.15 13.47L67.47 19.88L69.10 13.47L70.34 13.47L71.96 19.89L73.27 13.47L74.74 13.47L72.77 22L71.35 22L69.73 15.77L68.07 22L66.65 22ZM80.38 22L78.90 22L78.90 13.47L80.38 13.47L80.38 22ZM86.87 14.66L84.23 14.66L84.23 13.47L91.00 13.47L91.00 14.66L88.34 14.66L88.34 22L86.87 22L86.87 14.66ZM96.24 22L94.75 22L94.75 13.47L96.24 13.47L96.24 17.02L100.05 17.02L100.05 13.47L101.53 13.47L101.53 22L100.05 22L100.05 18.21L96.24 18.21L96.24 22Z" fill="#FFFFFF"/><path class="svg__text" d="M127.07 17.80L127.07 17.80Q127.07 16.54 127.67 15.54Q128.27 14.55 129.32 13.99Q130.37 13.43 131.69 13.43L131.69 13.43Q132.84 13.43 133.76 13.84Q134.69 14.25 135.30 15.02L135.30 15.02L133.79 16.39Q132.98 15.40 131.81 15.40L131.81 15.40Q131.12 15.40 130.59 15.70Q130.06 16 129.76 16.54Q129.47 17.09 129.47 17.80L129.47 17.80Q129.47 18.51 129.76 19.05Q130.06 19.60 130.59 19.90Q131.12 20.20 131.81 20.20L131.81 20.20Q132.98 20.20 133.79 19.22L133.79 19.22L135.30 20.58Q134.69 21.35 133.77 21.76Q132.84 22.17 131.69 22.17L131.69 22.17Q130.37 22.17 129.32 21.61Q128.27 21.05 127.67 20.05Q127.07 19.06 127.07 17.80ZM140.72 20.21L139.20 20.21L139.20 18.67L140.91 18.67L141.11 16.94L139.60 16.94L139.60 15.39L141.30 15.39L141.53 13.60L143.17 13.60L142.94 15.39L144.41 15.39L144.64 13.60L146.27 13.60L146.04 15.39L147.55 15.39L147.55 16.94L145.85 16.94L145.65 18.67L147.15 18.67L147.15 20.21L145.46 20.21L145.23 22L143.59 22L143.82 20.21L142.35 20.21L142.12 22L140.49 22L140.72 20.21ZM142.74 16.94L142.54 18.67L144.02 18.67L144.22 16.94L142.74 16.94ZM161.15 24.33L159.06 24.33L159.06 13.09L161.15 13.09L161.15 24.33ZM175.13 22L172.42 22L175.48 17.75L172.55 13.60L175.23 13.60L176.91 16.02L178.56 13.60L181.13 13.60L178.20 17.66L181.33 22L178.59 22L176.85 19.40L175.13 22ZM187.03 22L184.60 22L188.31 13.60L190.66 13.60L194.37 22L191.90 22L191.24 20.37L187.69 20.37L187.03 22ZM189.47 15.93L188.38 18.61L190.54 18.61L189.47 15.93ZM200.72 22L198.53 22L198.53 13.60L200.48 13.60L203.44 18.45L206.32 13.60L208.27 13.60L208.29 22L206.11 22L206.09 17.55L203.93 21.17L202.87 21.17L200.72 17.67L200.72 22ZM219.84 22L213.45 22L213.45 13.60L215.83 13.60L215.83 20.11L219.84 20.11L219.84 22ZM233.32 24.33L231.23 24.33L231.23 13.09L233.32 13.09L233.32 24.33ZM247.54 22L244.81 13.60L247.26 13.60L248.95 18.96L250.73 13.60L252.91 13.60L254.61 19.01L256.37 13.60L258.64 13.60L255.91 22L253.37 22L251.76 16.89L250.08 22L247.54 22ZM265.53 22L263.15 22L263.15 13.60L266.99 13.60Q268.13 13.60 268.97 13.98Q269.81 14.35 270.27 15.06Q270.72 15.76 270.72 16.71L270.72 16.71Q270.72 17.66 270.27 18.35Q269.81 19.05 268.97 19.42Q268.13 19.80 266.99 19.80L266.99 19.80L265.53 19.80L265.53 22ZM265.53 15.47L265.53 17.93L266.85 17.93Q267.58 17.93 267.95 17.61Q268.32 17.29 268.32 16.71L268.32 16.71Q268.32 16.12 267.95 15.80Q267.58 15.47 266.85 15.47L266.85 15.47L265.53 15.47ZM277.86 22L275.48 22L275.48 13.60L282.07 13.60L282.07 15.44L277.86 15.44L277.86 17.28L281.56 17.28L281.56 19.12L277.86 19.12L277.86 22ZM295.73 24.33L293.63 24.33L293.63 13.09L295.73 13.09L295.73 24.33ZM307.35 20.75L307.35 20.75Q307.35 20.15 307.74 19.78Q308.12 19.41 308.72 19.41L308.72 19.41Q309.31 19.41 309.70 19.78Q310.08 20.15 310.08 20.75L310.08 20.75Q310.08 21.34 309.69 21.72Q309.30 22.11 308.72 22.11L308.72 22.11Q308.14 22.11 307.74 21.72Q307.35 21.34 307.35 20.75ZM317.07 22L314.74 22L314.74 13.60L316.70 13.60L320.41 18.07L320.41 13.60L322.73 13.60L322.73 22L320.78 22L317.07 17.52L317.07 22ZM334.64 22L327.89 22L327.89 13.60L334.49 13.60L334.49 15.44L330.25 15.44L330.25 16.85L333.98 16.85L333.98 18.63L330.25 18.63L330.25 20.17L334.64 20.17L334.64 22ZM341.24 15.48L338.65 15.48L338.65 13.60L346.18 13.60L346.18 15.48L343.61 15.48L343.61 22L341.24 22L341.24 15.48Z" fill="#FFFFFF" x="126.31"/></svg>