<svg xmlns="http://www.w3.org/2000/svg" width="218.55" height="35" viewBox="0 0 218.55 35"><rect class="svg__rect" x="0" y="0" width="101.78" height="35" fill="#861918"/><rect class="svg__rect" x="99.78" y="0" width="118.77" height="35" fill="#C13B3A"/><path class="svg__text" d="M15.60 22L13.63 13.47L15.10 13.47L16.43 19.88L18.06 13.47L19.30 13.47L20.91 19.89L22.22 13.47L23.69 13.47L21.72 22L20.31 22L18.68 15.77L17.02 22L15.60 22ZM29.25 22L27.76 22L27.76 13.47L31.03 13.47Q32.46 13.47 33.30 14.21Q34.14 14.96 34.14 16.18L34.14 16.18Q34.14 17.44 33.32 18.13Q32.49 18.83 31.01 18.83L31.01 18.83L29.25 18.83L29.25 22ZM29.25 14.66L29.25 17.64L31.03 17.64Q31.82 17.64 32.23 17.27Q32.65 16.90 32.65 16.19L32.65 16.19Q32.65 15.50 32.23 15.09Q31.81 14.68 31.07 14.66L31.07 14.66L29.25 14.66ZM39.90 22L38.42 22L38.42 13.47L43.84 13.47L43.84 14.66L39.90 14.66L39.90 17.20L43.34 17.20L43.34 18.38L39.90 18.38L39.90 22ZM54.13 21.85Q53.90 21.63 53.90 21.29Q53.90 20.95 54.12 20.73Q54.34 20.50 54.73 20.50L54.73 20.50Q55.13 20.50 55.34 20.73Q55.56 20.95 55.56 21.29L55.56 21.29Q55.56 21.63 55.34 21.84Q55.13 22.06 54.73 22.06L54.73 22.06Q54.35 22.06 54.13 21.85ZM61.80 22L60.32 22L60.32 13.47L61.80 13.47L65.62 19.54L65.62 13.47L67.09 13.47L67.09 22L65.60 22L61.80 15.95L61.80 22ZM77.40 22L71.83 22L71.83 13.47L77.36 13.47L77.36 14.66L73.31 14.66L73.31 17.02L76.81 17.02L76.81 18.19L73.31 18.19L73.31 20.82L77.40 20.82L77.40 22ZM83.28 14.66L80.64 14.66L80.64 13.47L87.41 13.47L87.41 14.66L84.75 14.66L84.75 22L83.28 22L83.28 14.66Z" fill="#FFFFFF"/><path class="svg__text" d="M113.54 17.80L113.54 17.80Q113.54 16.54 114.14 15.54Q114.74 14.55 115.79 13.99Q116.84 13.43 118.16 13.43L118.16 13.43Q119.31 13.43 120.23 13.84Q121.16 14.25 121.77 15.02L121.77 15.02L120.26 16.39Q119.45 15.40 118.28 15.40L118.28 15.40Q117.59 15.40 117.06 15.70Q116.53 16 116.23 16.54Q115.94 17.09 115.94 17.80L115.94 17.80Q115.94 18.51 116.23 19.05Q116.53 19.60 117.06 19.90Q117.59 20.20 118.28 20.20L118.28 20.20Q119.45 20.20 120.26 19.22L120.26 19.22L121.77 20.58Q121.16 21.35 120.24 21.76Q119.31 22.17 118.16 22.17L118.16 22.17Q116.84 22.17 115.79 21.61Q114.74 21.05 114.14 20.05Q113.54 19.06 113.54 17.80ZM127.19 20.21L125.67 20.21L125.67 18.67L127.38 18.67L127.58 16.94L126.07 16.94L126.07 15.39L127.77 15.39L128.00 13.60L129.64 13.60L129.41 15.39L130.88 15.39L131.11 13.60L132.74 13.60L132.51 15.39L134.02 15.39L134.02 16.94L132.32 16.94L132.12 18.67L133.62 18.67L133.62 20.21L131.93 20.21L131.70 22L130.06 22L130.29 20.21L128.82 20.21L128.59 22L126.96 22L127.19 20.21ZM129.21 16.94L129.01 18.67L130.49 18.67L130.69 16.94L129.21 16.94ZM147.62 24.33L145.53 24.33L145.53 13.09L147.62 13.09L147.62 24.33ZM161.60 22L158.89 22L161.95 17.75L159.02 13.60L161.70 13.60L163.38 16.02L165.03 13.60L167.60 13.60L164.67 17.66L167.80 22L165.06 22L163.32 19.40L161.60 22ZM173.50 22L171.07 22L174.78 13.60L177.13 13.60L180.84 22L178.37 22L177.71 20.37L174.16 20.37L173.50 22ZM175.94 15.93L174.85 18.61L177.01 18.61L175.94 15.93ZM187.19 22L185.00 22L185.00 13.60L186.95 13.60L189.91 18.45L192.79 13.60L194.74 13.60L194.76 22L192.58 22L192.56 17.55L190.40 21.17L189.34 21.17L187.19 17.67L187.19 22ZM206.31 22L199.92 22L199.92 13.60L202.30 13.60L202.30 20.11L206.31 20.11L206.31 22Z" fill="#FFFFFF" x="112.78"/></svg>