<svg xmlns="http://www.w3.org/2000/svg" width="400.79999999999995" height="35" viewBox="0 0 400.79999999999995 35"><rect class="svg__rect" x="0" y="0" width="106.33" height="35" fill="#31C4F3"/><rect class="svg__rect" x="104.33" y="0" width="296.46999999999997" height="35" fill="#389AD5"/><path class="svg__text" d="M15.69 22L14.22 22L14.22 13.47L16.14 13.47L18.60 20.01L21.06 13.47L22.97 13.47L22.97 22L21.49 22L21.49 19.19L21.64 15.43L19.12 22L18.06 22L15.55 15.43L15.69 19.19L15.69 22ZM28.49 22L26.95 22L30.17 13.47L31.50 13.47L34.73 22L33.18 22L32.49 20.01L29.18 20.01L28.49 22ZM30.83 15.28L29.60 18.82L32.07 18.82L30.83 15.28ZM41.14 22L38.69 22L38.69 13.47L41.21 13.47Q42.34 13.47 43.21 13.97Q44.09 14.48 44.57 15.40Q45.05 16.33 45.05 17.52L45.05 17.52L45.05 17.95Q45.05 19.16 44.57 20.08Q44.08 21.00 43.19 21.50Q42.30 22 41.14 22L41.14 22ZM40.17 14.66L40.17 20.82L41.14 20.82Q42.30 20.82 42.93 20.09Q43.55 19.36 43.56 17.99L43.56 17.99L43.56 17.52Q43.56 16.13 42.96 15.40Q42.35 14.66 41.21 14.66L41.21 14.66L40.17 14.66ZM55.09 22L49.51 22L49.51 13.47L55.05 13.47L55.05 14.66L51.00 14.66L51.00 17.02L54.50 17.02L54.50 18.19L51.00 18.19L51.00 20.82L55.09 20.82L55.09 22ZM66.75 22L65.26 22L65.26 13.47L70.68 13.47L70.68 14.66L66.75 14.66L66.75 17.20L70.18 17.20L70.18 18.38L66.75 18.38L66.75 22ZM74.57 18.00L74.57 18.00L74.57 17.52Q74.57 16.28 75.02 15.32Q75.46 14.37 76.27 13.86Q77.07 13.35 78.11 13.35Q79.16 13.35 79.96 13.85Q80.77 14.35 81.21 15.29Q81.65 16.23 81.65 17.48L81.65 17.48L81.65 17.96Q81.65 19.21 81.22 20.16Q80.79 21.10 79.98 21.61Q79.17 22.12 78.13 22.12L78.13 22.12Q77.09 22.12 76.28 21.61Q75.47 21.10 75.02 20.17Q74.58 19.23 74.57 18.00ZM76.06 17.46L76.06 17.96Q76.06 19.36 76.60 20.13Q77.15 20.90 78.13 20.90L78.13 20.90Q79.11 20.90 79.64 20.15Q80.17 19.40 80.17 17.96L80.17 17.96L80.17 17.51Q80.17 16.09 79.63 15.34Q79.10 14.58 78.11 14.58L78.11 14.58Q77.15 14.58 76.61 15.33Q76.07 16.09 76.06 17.46L76.06 17.46ZM87.60 22L86.12 22L86.12 13.47L89.12 13.47Q90.59 13.47 91.40 14.13Q92.20 14.79 92.20 16.05L92.20 16.05Q92.20 16.90 91.79 17.48Q91.37 18.06 90.64 18.37L90.64 18.37L92.55 21.92L92.55 22L90.96 22L89.25 18.71L87.60 18.71L87.60 22ZM87.60 14.66L87.60 17.52L89.12 17.52Q89.87 17.52 90.30 17.15Q90.72 16.77 90.72 16.11L90.72 16.11Q90.72 15.43 90.33 15.05Q89.94 14.68 89.16 14.66L89.16 14.66L87.60 14.66Z" fill="#FFFFFF"/><path class="svg__text" d="M120.60 22L117.87 13.60L120.32 13.60L122.01 18.96L123.79 13.60L125.97 13.60L127.66 19.01L129.43 13.60L131.70 13.60L128.97 22L126.43 22L124.82 16.89L123.14 22L120.60 22ZM138.59 22L136.21 22L136.21 13.60L138.59 13.60L138.59 22ZM146.09 22L143.76 22L143.76 13.60L145.72 13.60L149.43 18.07L149.43 13.60L151.75 13.60L151.75 22L149.80 22L146.09 17.52L146.09 22ZM160.89 22L156.91 22L156.91 13.60L160.89 13.60Q162.27 13.60 163.34 14.12Q164.40 14.63 164.99 15.58Q165.58 16.53 165.58 17.80L165.58 17.80Q165.58 19.07 164.99 20.02Q164.40 20.97 163.34 21.48Q162.27 22 160.89 22L160.89 22ZM159.29 15.50L159.29 20.10L160.79 20.10Q161.87 20.10 162.52 19.49Q163.18 18.88 163.18 17.80L163.18 17.80Q163.18 16.72 162.52 16.11Q161.87 15.50 160.79 15.50L160.79 15.50L159.29 15.50ZM169.88 17.80L169.88 17.80Q169.88 16.55 170.48 15.55Q171.09 14.56 172.15 14.00Q173.22 13.43 174.55 13.43L174.55 13.43Q175.88 13.43 176.94 14.00Q178.00 14.56 178.61 15.55Q179.22 16.55 179.22 17.80L179.22 17.80Q179.22 19.05 178.61 20.04Q178.00 21.04 176.94 21.60Q175.88 22.17 174.55 22.17L174.55 22.17Q173.22 22.17 172.15 21.60Q171.09 21.04 170.48 20.04Q169.88 19.05 169.88 17.80ZM172.28 17.80L172.28 17.80Q172.28 18.51 172.58 19.05Q172.88 19.60 173.40 19.90Q173.91 20.20 174.55 20.20L174.55 20.20Q175.18 20.20 175.70 19.90Q176.22 19.60 176.51 19.05Q176.81 18.51 176.81 17.80L176.81 17.80Q176.81 17.09 176.51 16.54Q176.22 16 175.70 15.70Q175.18 15.40 174.55 15.40L174.55 15.40Q173.91 15.40 173.39 15.70Q172.88 16 172.58 16.54Q172.28 17.09 172.28 17.80ZM186.02 22L183.30 13.60L185.75 13.60L187.44 18.96L189.21 13.60L191.40 13.60L193.09 19.01L194.85 13.60L197.12 13.60L194.40 22L191.85 22L190.25 16.89L188.57 22L186.02 22ZM201.05 21.24L201.05 21.24L201.83 19.49Q202.39 19.86 203.13 20.09Q203.88 20.32 204.60 20.32L204.60 20.32Q205.96 20.32 205.97 19.64L205.97 19.64Q205.97 19.28 205.58 19.11Q205.19 18.93 204.32 18.74L204.32 18.74Q203.37 18.53 202.74 18.30Q202.10 18.06 201.65 17.55Q201.19 17.03 201.19 16.16L201.19 16.16Q201.19 15.39 201.61 14.77Q202.03 14.15 202.87 13.79Q203.70 13.43 204.91 13.43L204.91 13.43Q205.73 13.43 206.54 13.62Q207.35 13.80 207.96 14.17L207.96 14.17L207.23 15.93Q206.03 15.28 204.90 15.28L204.90 15.28Q204.19 15.28 203.87 15.49Q203.54 15.70 203.54 16.04L203.54 16.04Q203.54 16.37 203.93 16.54Q204.31 16.71 205.16 16.89L205.16 16.89Q206.12 17.10 206.75 17.33Q207.38 17.56 207.84 18.07Q208.31 18.58 208.31 19.46L208.31 19.46Q208.31 20.21 207.89 20.83Q207.47 21.44 206.63 21.80Q205.79 22.17 204.59 22.17L204.59 22.17Q203.57 22.17 202.61 21.92Q201.64 21.67 201.05 21.24ZM220.65 15.44L219.09 15.44L219.09 13.60L223.03 13.60L223.03 22L220.65 22L220.65 15.44ZM229.00 15.44L227.43 15.44L227.43 13.60L231.37 13.60L231.37 22L229.00 22L229.00 15.44ZM252.58 24.33L250.49 24.33L250.49 13.09L252.58 13.09L252.58 24.33ZM273.77 22L271.04 13.60L273.49 13.60L275.18 18.96L276.96 13.60L279.14 13.60L280.83 19.01L282.60 13.60L284.87 13.60L282.14 22L279.60 22L277.99 16.89L276.31 22L273.77 22ZM291.76 22L289.38 22L289.38 13.60L291.76 13.60L291.76 22ZM299.26 22L296.93 22L296.93 13.60L298.89 13.60L302.60 18.07L302.60 13.60L304.92 13.60L304.92 22L302.97 22L299.26 17.52L299.26 22ZM314.06 22L310.08 22L310.08 13.60L314.06 13.60Q315.44 13.60 316.51 14.12Q317.57 14.63 318.16 15.58Q318.75 16.53 318.75 17.80L318.75 17.80Q318.75 19.07 318.16 20.02Q317.57 20.97 316.51 21.48Q315.44 22 314.06 22L314.06 22ZM312.46 15.50L312.46 20.10L313.96 20.10Q315.04 20.10 315.69 19.49Q316.35 18.88 316.35 17.80L316.35 17.80Q316.35 16.72 315.69 16.11Q315.04 15.50 313.96 15.50L313.96 15.50L312.46 15.50ZM323.05 17.80L323.05 17.80Q323.05 16.55 323.65 15.55Q324.26 14.56 325.32 14.00Q326.39 13.43 327.72 13.43L327.72 13.43Q329.05 13.43 330.11 14.00Q331.17 14.56 331.78 15.55Q332.39 16.55 332.39 17.80L332.39 17.80Q332.39 19.05 331.78 20.04Q331.17 21.04 330.11 21.60Q329.05 22.17 327.72 22.17L327.72 22.17Q326.39 22.17 325.32 21.60Q324.26 21.04 323.65 20.04Q323.05 19.05 323.05 17.80ZM325.45 17.80L325.45 17.80Q325.45 18.51 325.75 19.05Q326.05 19.60 326.57 19.90Q327.08 20.20 327.72 20.20L327.72 20.20Q328.35 20.20 328.87 19.90Q329.39 19.60 329.68 19.05Q329.98 18.51 329.98 17.80L329.98 17.80Q329.98 17.09 329.68 16.54Q329.39 16 328.87 15.70Q328.35 15.40 327.72 15.40L327.72 15.40Q327.08 15.40 326.56 15.70Q326.05 16 325.75 16.54Q325.45 17.09 325.45 17.80ZM339.19 22L336.47 13.60L338.92 13.60L340.61 18.96L342.38 13.60L344.57 13.60L346.26 19.01L348.02 13.60L350.29 13.60L347.57 22L345.02 22L343.42 16.89L341.74 22L339.19 22ZM354.22 21.24L354.22 21.24L355.00 19.49Q355.56 19.86 356.30 20.09Q357.05 20.32 357.77 20.32L357.77 20.32Q359.13 20.32 359.14 19.64L359.14 19.64Q359.14 19.28 358.75 19.11Q358.36 18.93 357.49 18.74L357.49 18.74Q356.54 18.53 355.91 18.30Q355.27 18.06 354.82 17.55Q354.36 17.03 354.36 16.16L354.36 16.16Q354.36 15.39 354.78 14.77Q355.20 14.15 356.04 13.79Q356.87 13.43 358.08 13.43L358.08 13.43Q358.90 13.43 359.71 13.62Q360.52 13.80 361.13 14.17L361.13 14.17L360.40 15.93Q359.20 15.28 358.07 15.28L358.07 15.28Q357.36 15.28 357.04 15.49Q356.71 15.70 356.71 16.04L356.71 16.04Q356.71 16.37 357.10 16.54Q357.48 16.71 358.33 16.89L358.33 16.89Q359.29 17.10 359.92 17.33Q360.55 17.56 361.01 18.07Q361.48 18.58 361.48 19.46L361.48 19.46Q361.48 20.21 361.06 20.83Q360.64 21.44 359.80 21.80Q358.96 22.17 357.76 22.17L357.76 22.17Q356.74 22.17 355.78 21.92Q354.81 21.67 354.22 21.24ZM373.82 15.44L372.26 15.44L372.26 13.60L376.20 13.60L376.20 22L373.82 22L373.82 15.44ZM380.94 17.80L380.94 17.80Q380.94 16.45 381.41 15.46Q381.89 14.46 382.73 13.95Q383.57 13.43 384.64 13.43L384.64 13.43Q385.71 13.43 386.55 13.95Q387.39 14.46 387.87 15.46Q388.34 16.45 388.34 17.80L388.34 17.80Q388.34 19.15 387.87 20.15Q387.39 21.14 386.56 21.65Q385.72 22.17 384.64 22.17L384.64 22.17Q383.57 22.17 382.73 21.65Q381.89 21.14 381.41 20.15Q380.94 19.16 380.94 17.80ZM383.33 17.80L383.33 17.80Q383.33 19.06 383.68 19.64Q384.04 20.22 384.64 20.22L384.64 20.22Q385.25 20.22 385.60 19.64Q385.96 19.06 385.96 17.80L385.96 17.80Q385.96 16.54 385.60 15.96Q385.25 15.38 384.64 15.38L384.64 15.38Q384.04 15.38 383.68 15.96Q383.33 16.54 383.33 17.80Z" fill="#FFFFFF" x="117.33"/></svg>